<?xml version="1.0" encoding="UTF-8"?>
<!DOCTYPE svg PUBLIC "-//W3C//DTD SVG 1.1//EN" "http://www.w3.org/Graphics/SVG/1.1/DTD/svg11.dtd">
<!-- Creator: CorelDRAW -->
<svg xmlns="http://www.w3.org/2000/svg" xml:space="preserve" width="0.213331in" height="0.213331in" style="shape-rendering:geometricPrecision; text-rendering:geometricPrecision; image-rendering:optimizeQuality; fill-rule:evenodd; clip-rule:evenodd"
viewBox="0 0 0.213331 0.213331"
 xmlns:xlink="http://www.w3.org/1999/xlink">
 <defs>
  <style type="text/css">
   <![CDATA[
    .fil0 {fill:#666666;fill-rule:nonzero}
   ]]>
  </style>
 </defs>
 <g id="Layer_x0020_1">
  <metadata id="CorelCorpID_0Corel-Layer"/>
  <g id="_87009560">
   <g>
    <path id="_85759824" class="fil0" d="M0.142776 0.0463937l-0.00984252 0 0 0 -1.9685e-005 -0.00137402 -0.000102362 -0.00133858 -0.000177165 -0.00130709 -0.000220472 -0.00129134 -0.000287402 -0.00127559 -0.000362205 -0.00123228 -0.000417323 -0.00123622 -0.000456693 -0.00118898 -0.000531496 -0.00114961 -0.000574803 -0.00113386 -0.000633858 -0.00111417 -0.00069685 -0.00105512 -0.00073622 -0.00102756 -0.000771654 -0.00100787 -0.000826772 -0.000937008 -0.000877953 -0.000909449 -0.000909449 -0.000877953 -0.000940945 -0.000826772 -0.00100394 -0.000771654 -0.0010315 -0.00073622 -0.00105512 -0.00069685 -0.00109449 -0.000614173 -0.00113386 -0.000590551 -0.00116929 -0.000531496 -0.00118898 -0.00046063 -0.00121654 -0.000413386 -0.00125197 -0.000362205 -0.00127953 -0.000287402 -0.0012874 -0.000220472 -0.00131102 -0.000177165 -0.00133465 -0.000102362 -0.00137402 -1.9685e-005 0 -0.00984252 0.00183858 5.90551e-005 0.00183071 0.000141732 0.00181496 0.000216535 0.00178346 0.000330709 0.00174409 0.000405512 0.00170866 0.000480315 0.0016811 0.000562992 0.00164567 0.00065748 0.00159449 0.000720472 0.00155906 0.000779528 0.00151969 0.000889764 0.00147244 0.000925197 0.00141732 0.00100394 0.00135039 0.00107874 0.00132677 0.00113386 0.00125591 0.00118504 0.00118504 0.00125591 0.00113386 0.00132283 0.00107874 0.00135433 0.00100394 0.00141339 0.000925197 0.00147244 0.000870079 0.0015 0.00080315 0.00155906 0.000720472 0.00161417 0.000653543 0.00164567 0.000566929 0.00166142 0.000480315 0.00172835 0.000405512 0.00174016 0.000330709 0.0017874 0.000216535 0.00181102 0.000141732 0.00183465 5.90551e-005 0.00183858 0 0zm-0.0361181 0.0360945l0 -0.00984252 0 0 0.00137402 -1.9685e-005 0.00133465 -0.000102362 0.00131102 -0.000177165 0.0012874 -0.000220472 0.00127953 -0.000287402 0.00125197 -0.000362205 0.00121654 -0.000413386 0.00118898 -0.00046063 0.00114961 -0.000531496 0.00115354 -0.000594488 0.00109449 -0.000610236 0.00105512 -0.00069685 0.0010315 -0.00073622 0.00100394 -0.000771654 0.000940945 -0.000826772 0.000909449 -0.000877953 0.000877953 -0.000909449 0.000826772 -0.000937008 0.000771654 -0.00100787 0.00073622 -0.00102756 0.00069685 -0.00105512 0.000633858 -0.00111417 0.000574803 -0.00112992 0.000531496 -0.00114961 0.000456693 -0.00118898 0.000417323 -0.00123228 0.000362205 -0.00123228 0.000287402 -0.00127559 0.000220472 -0.0012874 0.000177165 -0.00130709 0.000102362 -0.00133858 1.9685e-005 -0.00137008 0.00984252 0 -5.90551e-005 0.00183465 -0.000141732 0.00183465 -0.000216535 0.00181102 -0.000330709 0.00178346 -0.000405512 0.00174016 -0.000480315 0.00172835 -0.000566929 0.00165748 -0.000653543 0.00164567 -0.000720472 0.00161417 -0.00080315 0.00155512 -0.000870079 0.0015 -0.000925197 0.00147244 -0.00100394 0.00141339 -0.00107874 0.00135433 -0.00113386 0.00132283 -0.00118504 0.00125591 -0.00125591 0.00118504 -0.00132677 0.00113386 -0.00135039 0.00107874 -0.00141732 0.00100394 -0.00147244 0.000925197 -0.00151969 0.000885827 -0.00153937 0.000783465 -0.00161417 0.000720472 -0.00164567 0.00065748 -0.0016811 0.000562992 -0.00170866 0.000480315 -0.00174409 0.000405512 -0.00178346 0.000330709 -0.00181496 0.000216535 -0.00183071 0.000141732 -0.00183858 5.90551e-005 0 0zm-0.0361063 -0.0360945l0.00984252 0 0 0 1.9685e-005 0.00137008 0.000102362 0.00133858 0.000177165 0.00130709 0.000220472 0.0012874 0.000287402 0.00127559 0.000362205 0.00125197 0.000413386 0.0012126 0.00046063 0.00118898 0.000531496 0.00116929 0.000590551 0.00111024 0.000614173 0.00111417 0.00069685 0.00105512 0.00073622 0.00102756 0.000771654 0.00100787 0.000826772 0.000937008 0.000877953 0.000909449 0.000909449 0.000877953 0.000956693 0.000826772 0.000984252 0.000771654 0.0010315 0.00073622 0.00105512 0.00069685 0.00111417 0.000610236 0.00112992 0.000594488 0.00114961 0.000531496 0.00118898 0.00046063 0.00121654 0.000413386 0.00125197 0.000362205 0.00127953 0.000287402 0.0012874 0.000220472 0.00131102 0.000177165 0.00133465 0.000102362 0.00137402 1.9685e-005 0 0.00984252 -0.00183858 -5.90551e-005 -0.00183071 -0.000141732 -0.00181496 -0.000216535 -0.00178346 -0.000330709 -0.00174409 -0.000405512 -0.00170866 -0.000480315 -0.0016811 -0.000562992 -0.00164567 -0.00065748 -0.00161417 -0.000720472 -0.00155512 -0.000783465 -0.0015 -0.000885827 -0.00147244 -0.000925197 -0.00141732 -0.00100394 -0.00137008 -0.00107874 -0.00130315 -0.00113386 -0.00125591 -0.00118504 -0.00118504 -0.00125591 -0.00113386 -0.00132283 -0.00107874 -0.00135433 -0.00100394 -0.00141339 -0.000925197 -0.00147244 -0.000889764 -0.0015 -0.000779528 -0.0015748 -0.000720472 -0.00159449 -0.00065748 -0.00164567 -0.000562992 -0.00167717 -0.000480315 -0.00170866 -0.000405512 -0.00174016 -0.000330709 -0.00178346 -0.000216535 -0.00181102 -0.000141732 -0.00183465 -5.90551e-005 -0.00183465 0 0zm0.0361063 -0.0361102l0 0.00984252 0 0 -0.00137402 1.9685e-005 -0.00133465 0.000102362 -0.00131102 0.000177165 -0.0012874 0.000220472 -0.00127953 0.000287402 -0.00125197 0.000362205 -0.00121654 0.000413386 -0.00118898 0.00046063 -0.00116929 0.000531496 -0.00111024 0.000590551 -0.00111417 0.000614173 -0.00105512 0.00069685 -0.0010315 0.00073622 -0.000984252 0.000771654 -0.000956693 0.000826772 -0.000909449 0.000877953 -0.000877953 0.000909449 -0.000826772 0.000937008 -0.000771654 0.00100787 -0.00073622 0.00102756 -0.00069685 0.00105512 -0.000614173 0.00109449 -0.000590551 0.00113386 -0.000531496 0.00116929 -0.00046063 0.00118898 -0.000413386 0.00121654 -0.000362205 0.00125197 -0.000287402 0.00127559 -0.000220472 0.00129134 -0.000177165 0.00130709 -0.000102362 0.00133858 -1.9685e-005 0.00137402 -0.00984252 0 5.90551e-005 -0.00183858 0.000141732 -0.00183465 0.000216535 -0.00181102 0.000330709 -0.0017874 0.000405512 -0.00174016 0.000480315 -0.00170866 0.000562992 -0.0016811 0.00065748 -0.00164567 0.000720472 -0.00159449 0.000779528 -0.00155906 0.000889764 -0.00151969 0.000925197 -0.00147244 0.00100394 -0.00141339 0.00107874 -0.00135433 0.00113386 -0.00132283 0.00118504 -0.00125591 0.00125591 -0.00118504 0.00130315 -0.00113386 0.00137008 -0.00107874 0.00141732 -0.00100394 0.00147244 -0.000925197 0.0015 -0.000889764 0.0015748 -0.000779528 0.00159449 -0.000720472 0.00164567 -0.00065748 0.0016811 -0.000562992 0.00170866 -0.000480315 0.00174409 -0.000405512 0.00178346 -0.000330709 0.00181496 -0.000216535 0.00183071 -0.000141732 0.00183858 -5.90551e-005 0 0z"/>
   </g>
   <g id="_86879672">
    <g>
     <path id="_86880032" class="fil0" d="M0.10835 0.106547l-0.00980315 0 -1.9685e-005 0 -1.9685e-005 -0.00137008 -0.000102362 -0.00133465 -0.000177165 -0.00131102 -0.000220472 -0.0012874 -0.000287402 -0.00127559 -0.000362205 -0.00125197 -0.000413386 -0.00121654 -0.00046063 -0.00118504 -0.000531496 -0.00116929 -0.000590551 -0.00113386 -0.000614173 -0.00109449 -0.00069685 -0.00105512 -0.00073622 -0.0010315 -0.000771654 -0.00100394 -0.000826772 -0.000940945 -0.000877953 -0.000909449 -0.000909449 -0.000877953 -0.00096063 -0.000830709 -0.000984252 -0.000771654 -0.0010315 -0.00073622 -0.00105512 -0.00069685 -0.00111417 -0.000633858 -0.00113386 -0.000574803 -0.00114961 -0.000531496 -0.00118898 -0.00046063 -0.00121654 -0.000413386 -0.00125591 -0.000362205 -0.00127559 -0.000291339 -0.00129134 -0.000220472 -0.00131102 -0.000177165 -0.00133858 -0.000102362 -0.00137402 -1.9685e-005 0 -0.00984252 0.00183858 5.90551e-005 0.00183465 0.000141732 0.00181496 0.000216535 0.0017874 0.000330709 0.00174016 0.000409449 0.0017126 0.000480315 0.0016811 0.000562992 0.00164567 0.00065748 0.00161417 0.000720472 0.00155906 0.00080315 0.0015 0.000870079 0.00147244 0.000925197 0.00141732 0.00100394 0.00137008 0.00107874 0.00130709 0.0011378 0.00125591 0.00118504 0.00118504 0.00125591 0.00113386 0.00132677 0.00107874 0.00135039 0.00100394 0.00141732 0.000925197 0.00147244 0.000889764 0.00151969 0.000779528 0.00155906 0.000720472 0.00159449 0.00065748 0.00164173 0.000562992 0.0016811 0.000480315 0.00170866 0.000405512 0.00174016 0.000330709 0.00178346 0.000216535 0.00181496 0.000141732 0.00183071 5.90551e-005 0.00183465 -1.9685e-005 0zm-0.0361024 0.036122l0 -0.00984252 0 0 0.00137402 -1.9685e-005 0.00133858 -0.000102362 0.00131102 -0.000177165 0.00129134 -0.000220472 0.00127559 -0.000291339 0.00125591 -0.000358268 0.00119685 -0.000417323 0.00120866 -0.00046063 0.00114961 -0.000531496 0.00113386 -0.000574803 0.00111417 -0.000633858 0.00105512 -0.00069685 0.0010315 -0.00073622 0.00100394 -0.000771654 0.000940945 -0.000826772 0.000909449 -0.000862205 0.000877953 -0.000929134 0.000826772 -0.000940945 0.000771654 -0.00100394 0.00073622 -0.0010315 0.00069685 -0.00105512 0.000614173 -0.00109449 0.000590551 -0.00113386 0.000531496 -0.00116929 0.00046063 -0.00118898 0.000413386 -0.00121654 0.000362205 -0.00125197 0.000287402 -0.00127559 0.000220472 -0.00129134 0.000177165 -0.00130709 0.000102362 -0.00133465 3.93701e-005 -0.00137402 0.00980315 0 -3.93701e-005 0.00183858 -0.000141732 0.00183071 -0.000216535 0.00181102 -0.000330709 0.0017874 -0.000405512 0.00174016 -0.000480315 0.00170866 -0.000562992 0.0016811 -0.00065748 0.00164567 -0.000720472 0.00159449 -0.000779528 0.00155906 -0.000889764 0.00151969 -0.000925197 0.00147244 -0.00100394 0.00141732 -0.00107874 0.00135039 -0.00113386 0.00132677 -0.00118504 0.00123622 -0.00125591 0.00120866 -0.00132677 0.00113386 -0.00135039 0.00107874 -0.00141732 0.00100394 -0.00147244 0.000925197 -0.0015 0.000870079 -0.00155906 0.00080315 -0.00161417 0.000720472 -0.00162598 0.00065748 -0.00170079 0.000566929 -0.0017126 0.000476378 -0.00174016 0.000409449 -0.0017874 0.000330709 -0.00181496 0.000216535 -0.00183465 0.000141732 -0.00183858 5.90551e-005 0 0zm-0.0360866 -0.036122l0.00984252 0 -1.9685e-005 0 3.93701e-005 0.00137402 0.000102362 0.00133465 0.000177165 0.00130709 0.000220472 0.00129134 0.000287402 0.00127559 0.000362205 0.00125197 0.000413386 0.00121654 0.000456693 0.00118898 0.000531496 0.00114961 0.000594488 0.00115354 0.000610236 0.00109449 0.00069685 0.00105512 0.000732283 0.0010315 0.000771654 0.00100394 0.000826772 0.000940945 0.000877953 0.000929134 0.000909449 0.000862205 0.000956693 0.000826772 0.000984252 0.000791339 0.00102756 0.000716535 0.00105512 0.00069685 0.00111417 0.000633858 0.00112992 0.000574803 0.00114961 0.000531496 0.00120866 0.00046063 0.00119291 0.000417323 0.00125197 0.000358268 0.00127559 0.000291339 0.00129134 0.000220472 0.00130709 0.000177165 0.00133465 0.000102362 0.00137402 1.9685e-005 0 0.00984252 -0.00183858 -5.90551e-005 -0.00183071 -0.000141732 -0.00181102 -0.000216535 -0.0017874 -0.000330709 -0.00174016 -0.000409449 -0.00170866 -0.000476378 -0.00169685 -0.000566929 -0.00162598 -0.00065748 -0.00161417 -0.000720472 -0.00155512 -0.00080315 -0.0015 -0.000870079 -0.00147244 -0.000925197 -0.00141339 -0.00102362 -0.00137008 -0.00105906 -0.00130315 -0.00113386 -0.00125591 -0.00120866 -0.00118504 -0.00123622 -0.00113386 -0.00132677 -0.00107874 -0.00135039 -0.001 -0.00141732 -0.000925197 -0.00147244 -0.000885827 -0.00151969 -0.000783465 -0.00153937 -0.000720472 -0.00161417 -0.000653543 -0.00164567 -0.000562992 -0.0016811 -0.000480315 -0.00170866 -0.000405512 -0.00174016 -0.000330709 -0.0017874 -0.000216535 -0.00181102 -0.000141732 -0.00183071 -3.93701e-005 -0.00183858 -1.9685e-005 0zm0.0360866 -0.0361142l0 0.00984252 0 0 -0.00137402 1.9685e-005 -0.00133465 0.000102362 -0.00130709 0.000177165 -0.00129134 0.000220472 -0.00127559 0.000291339 -0.00125197 0.000362205 -0.0012126 0.000413386 -0.00118898 0.00046063 -0.00114961 0.000531496 -0.00112992 0.000574803 -0.00111417 0.000633858 -0.00105512 0.00069685 -0.00102756 0.000716535 -0.000984252 0.000791339 -0.000956693 0.000830709 -0.000909449 0.000877953 -0.000877953 0.000909449 -0.000826772 0.000940945 -0.000771654 0.00100394 -0.000732283 0.0010315 -0.00069685 0.00105512 -0.000610236 0.00109449 -0.000594488 0.00115354 -0.000531496 0.00114961 -0.000456693 0.00118504 -0.000413386 0.00121654 -0.000362205 0.00125197 -0.000287402 0.00127559 -0.000220472 0.0012874 -0.000177165 0.00131102 -0.000102362 0.00133465 -1.9685e-005 0.00137008 -0.00984252 0 5.90551e-005 -0.00183465 0.000141732 -0.00183071 0.000216535 -0.00181496 0.000330709 -0.00178346 0.000405512 -0.00174016 0.000480315 -0.00170866 0.000562992 -0.0016811 0.000653543 -0.00164173 0.000720472 -0.00161417 0.000783465 -0.00153937 0.000885827 -0.00151969 0.000925197 -0.00147244 0.001 -0.00141732 0.00107874 -0.00135039 0.00113386 -0.00132677 0.00118504 -0.00125591 0.00125591 -0.00118504 0.00130315 -0.0011378 0.00137008 -0.00105906 0.00141339 -0.00102362 0.00147244 -0.000925197 0.0015 -0.000870079 0.00155512 -0.00080315 0.00161417 -0.000720472 0.00164567 -0.00065748 0.00167717 -0.000562992 0.00170866 -0.000480315 0.00174016 -0.000409449 0.0017874 -0.000330709 0.00181102 -0.000216535 0.00183071 -0.000141732 0.00183858 -5.90551e-005 0 0z"/>
    </g>
    <g>
     <path class="fil0" d="M0.177146 0.106547l-0.00980315 0 -1.9685e-005 0 -1.9685e-005 -0.00137008 -0.000102362 -0.00133465 -0.000177165 -0.00131102 -0.000220472 -0.0012874 -0.000287402 -0.00127559 -0.000362205 -0.00125197 -0.000413386 -0.00121654 -0.000456693 -0.00118504 -0.000531496 -0.00114961 -0.000594488 -0.00115354 -0.000610236 -0.00109449 -0.00069685 -0.00105512 -0.000732283 -0.0010315 -0.000771654 -0.00100394 -0.000826772 -0.000940945 -0.000877953 -0.000909449 -0.000909449 -0.000877953 -0.000956693 -0.000830709 -0.000984252 -0.000791339 -0.00102756 -0.000716535 -0.00105512 -0.00069685 -0.00111417 -0.000633858 -0.00112992 -0.000574803 -0.00114961 -0.000531496 -0.00118898 -0.00046063 -0.0012126 -0.000413386 -0.00125197 -0.000362205 -0.00127559 -0.000291339 -0.00129134 -0.000220472 -0.00130709 -0.000177165 -0.00133465 -0.000102362 -0.00137402 -1.9685e-005 0 -0.00984252 0.00183858 5.90551e-005 0.00183071 0.000141732 0.00181102 0.000216535 0.0017874 0.000330709 0.00174016 0.000409449 0.00170866 0.000480315 0.00167717 0.000562992 0.00164567 0.00065748 0.00161417 0.000720472 0.00155512 0.00080315 0.0015 0.000870079 0.00147244 0.000925197 0.00141339 0.00102362 0.00137008 0.00105906 0.00130315 0.0011378 0.00125591 0.00118504 0.00118504 0.00125591 0.00113386 0.00132677 0.00107874 0.00135039 0.001 0.00141732 0.000925197 0.00147244 0.000885827 0.00151969 0.000783465 0.00153937 0.000720472 0.00161417 0.000653543 0.00164173 0.000562992 0.0016811 0.000480315 0.00170866 0.000405512 0.00174016 0.000330709 0.00178346 0.000216535 0.00181496 0.000141732 0.00183071 5.90551e-005 0.00183465 -1.9685e-005 0zm-0.0360669 0.036122l0 -0.00984252 0 0 0.00137402 -1.9685e-005 0.00133465 -0.000102362 0.00130709 -0.000177165 0.00129134 -0.000220472 0.00127559 -0.000291339 0.00125197 -0.000358268 0.00119291 -0.000417323 0.00120866 -0.00046063 0.00114961 -0.000531496 0.00112992 -0.000574803 0.00111417 -0.000633858 0.00105512 -0.00069685 0.00102756 -0.000716535 0.000984252 -0.000791339 0.000956693 -0.000826772 0.000909449 -0.000862205 0.000877953 -0.000929134 0.000826772 -0.000940945 0.000771654 -0.00100394 0.000732283 -0.0010315 0.00069685 -0.00105512 0.000610236 -0.00109449 0.000594488 -0.00115354 0.000531496 -0.00114961 0.000456693 -0.00118898 0.000413386 -0.00121654 0.000362205 -0.00125197 0.000287402 -0.00127559 0.000220472 -0.00129134 0.000177165 -0.00130709 0.000102362 -0.00133465 3.93701e-005 -0.00137402 0.00980315 0 -3.93701e-005 0.00183858 -0.000141732 0.00183071 -0.000216535 0.00181102 -0.000330709 0.0017874 -0.000405512 0.00174016 -0.000480315 0.00170866 -0.000562992 0.0016811 -0.000653543 0.00164567 -0.000720472 0.00161417 -0.000783465 0.00153937 -0.000885827 0.00151969 -0.000925197 0.00147244 -0.001 0.00141732 -0.00107874 0.00135039 -0.00113386 0.00132677 -0.00118504 0.00123622 -0.00125591 0.00120866 -0.00130315 0.00113386 -0.00137008 0.00105906 -0.00141339 0.00102362 -0.00147244 0.000925197 -0.0015 0.000870079 -0.00155512 0.00080315 -0.00161417 0.000720472 -0.00162598 0.00065748 -0.00169685 0.000566929 -0.00170866 0.000476378 -0.00174016 0.000409449 -0.0017874 0.000330709 -0.00181102 0.000216535 -0.00183071 0.000141732 -0.00183858 5.90551e-005 0 0zm-0.036122 -0.036122l0.00984252 0 -1.9685e-005 0 3.93701e-005 0.00137402 0.000102362 0.00133465 0.000177165 0.00130709 0.000220472 0.00129134 0.000287402 0.00127559 0.000362205 0.00125197 0.000413386 0.00121654 0.00046063 0.00118898 0.000527559 0.00116929 0.000574803 0.00111417 0.000633858 0.00111417 0.00069685 0.00105512 0.00073622 0.0010315 0.000771654 0.00100394 0.000826772 0.000940945 0.000877953 0.000929134 0.000909449 0.000862205 0.000937008 0.000826772 0.00100787 0.000771654 0.00102756 0.00073622 0.00105906 0.00069685 0.00111417 0.000633858 0.00113386 0.000574803 0.00114961 0.000531496 0.00120866 0.00046063 0.00119685 0.000417323 0.00125197 0.000358268 0.00127953 0.000291339 0.00129134 0.000220472 0.00131102 0.000177165 0.00133858 0.000102362 0.00137402 1.9685e-005 0 0.00984252 -0.00183858 -5.90551e-005 -0.00183465 -0.000141732 -0.00181496 -0.000216535 -0.0017874 -0.000330709 -0.00174409 -0.000409449 -0.00170866 -0.000476378 -0.00170079 -0.000566929 -0.00162598 -0.00065748 -0.00161417 -0.000720472 -0.00155906 -0.00080315 -0.0015 -0.000870079 -0.00147638 -0.000925197 -0.00141339 -0.00100394 -0.00135433 -0.00107874 -0.00132283 -0.00113386 -0.00125591 -0.00120866 -0.00118504 -0.00123622 -0.00113386 -0.00132677 -0.00107874 -0.00135039 -0.00100394 -0.00141732 -0.000925197 -0.00147244 -0.000870079 -0.0015 -0.00080315 -0.00157874 -0.000716535 -0.00159449 -0.00065748 -0.00164567 -0.000562992 -0.0016811 -0.000480315 -0.00170866 -0.000405512 -0.00174016 -0.000330709 -0.0017874 -0.000216535 -0.00181102 -0.000141732 -0.00183071 -3.93701e-005 -0.00183858 -1.9685e-005 0zm0.036122 -0.0361142l0 0.00984252 0 0 -0.00137402 1.9685e-005 -0.00133858 0.000102362 -0.00131102 0.000177165 -0.00129134 0.000220472 -0.00127953 0.000291339 -0.00125197 0.000362205 -0.00121654 0.000413386 -0.00118898 0.00046063 -0.00114961 0.000531496 -0.00113386 0.000574803 -0.00111417 0.000633858 -0.00105906 0.00069685 -0.00102756 0.00073622 -0.000988189 0.000771654 -0.000956693 0.000830709 -0.000909449 0.000877953 -0.000877953 0.000909449 -0.000826772 0.000940945 -0.000771654 0.00100394 -0.00073622 0.0010315 -0.00069685 0.00105512 -0.000633858 0.00111417 -0.000574803 0.00111417 -0.000527559 0.00116929 -0.00046063 0.00118504 -0.000413386 0.00121654 -0.000362205 0.00125197 -0.000287402 0.00127559 -0.000220472 0.0012874 -0.000177165 0.00131102 -0.000102362 0.00133465 -1.9685e-005 0.00137008 -0.00984252 0 5.90551e-005 -0.00183465 0.000141732 -0.00183071 0.000216535 -0.00181496 0.000330709 -0.00178346 0.000405512 -0.00174016 0.000480315 -0.00170866 0.000562992 -0.0016811 0.00065748 -0.00164173 0.000716535 -0.00159449 0.00080315 -0.00157874 0.000870079 -0.0015 0.000925197 -0.00147244 0.00100394 -0.00141732 0.00107874 -0.00135039 0.00113386 -0.00132677 0.00118504 -0.00125591 0.00125591 -0.00118504 0.00130315 -0.0011378 0.00137402 -0.00107874 0.00141339 -0.00100394 0.00147638 -0.000925197 0.0015 -0.000870079 0.00155906 -0.00080315 0.00161417 -0.000720472 0.00164567 -0.00065748 0.0016811 -0.000562992 0.00170866 -0.000480315 0.00174409 -0.000409449 0.0017874 -0.000330709 0.00181496 -0.000216535 0.00183465 -0.000141732 0.00183858 -5.90551e-005 0 0z"/>
    </g>
   </g>
   <g>
    <g>
     <path class="fil0" d="M0.0739685 0.166929l-0.00984252 0 0 0 -1.9685e-005 -0.00137008 -0.000102362 -0.00133465 -0.000177165 -0.00130709 -0.000220472 -0.0012874 -0.000287402 -0.00127559 -0.000362205 -0.00123228 -0.000417323 -0.0012126 -0.00046063 -0.00120866 -0.000527559 -0.00116929 -0.000574803 -0.00111024 -0.000633858 -0.00111024 -0.00069685 -0.00105906 -0.000716535 -0.00102756 -0.000791339 -0.000984252 -0.000830709 -0.000956693 -0.000877953 -0.000909449 -0.000909449 -0.000877953 -0.000940945 -0.000826772 -0.00100394 -0.000771654 -0.0010315 -0.00073622 -0.00105512 -0.00069685 -0.00111417 -0.000610236 -0.00112992 -0.000594488 -0.00114961 -0.000531496 -0.00118898 -0.00046063 -0.00121654 -0.000413386 -0.00125197 -0.000362205 -0.00127559 -0.000287402 -0.00129134 -0.000220472 -0.00130709 -0.000177165 -0.00133465 -0.000102362 -0.00137402 -3.93701e-005 0 -0.00980315 0.00183858 3.93701e-005 0.00183071 0.000141732 0.00181102 0.000216535 0.0017874 0.000330709 0.00174016 0.000405512 0.00170866 0.000480315 0.0016811 0.000562992 0.00164567 0.00065748 0.00161417 0.000720472 0.00155512 0.000783465 0.0015 0.000885827 0.00147244 0.000925197 0.00141732 0.00100394 0.00135039 0.00107874 0.00132677 0.00113386 0.00125591 0.00118504 0.00118504 0.00125591 0.0011378 0.00130315 0.00105906 0.00137008 0.00102362 0.00141339 0.000925197 0.00147638 0.000870079 0.00149606 0.00080315 0.0015748 0.000716535 0.00159449 0.00065748 0.00162598 0.000566929 0.00167717 0.000480315 0.00172835 0.000405512 0.00174016 0.000330709 0.00178346 0.000216535 0.00181102 0.000141732 0.00183071 5.90551e-005 0.00183465 0 0zm-0.0361142 0.0361181l0 -0.00984252 0 1.9685e-005 0.00137402 -3.93701e-005 0.00133465 -0.000102362 0.00130709 -0.000177165 0.00129134 -0.000220472 0.00127559 -0.000287402 0.00123228 -0.000362205 0.00123622 -0.000417323 0.00118898 -0.000456693 0.00114961 -0.000531496 0.00112992 -0.000574803 0.00111417 -0.000633858 0.00105512 -0.00069685 0.0010315 -0.000732283 0.000984252 -0.000775591 0.00096063 -0.000826772 0.000909449 -0.000877953 0.000877953 -0.000909449 0.000830709 -0.000956693 0.000771654 -0.000988189 0.00073622 -0.00102756 0.00069685 -0.00105906 0.000633858 -0.00111417 0.000574803 -0.00111024 0.000527559 -0.00116929 0.00046063 -0.00120866 0.000417323 -0.00122047 0.000362205 -0.00123228 0.000287402 -0.00127559 0.000220472 -0.00129134 0.000177165 -0.00130709 0.000102362 -0.00133858 1.9685e-005 -0.00137402 0.00984252 0 -5.90551e-005 0.00183858 -0.000141732 0.00183465 -0.000216535 0.00181102 -0.000330709 0.0017874 -0.000405512 0.00174016 -0.000480315 0.00172835 -0.000566929 0.00168504 -0.00065748 0.00162598 -0.000716535 0.00159449 -0.00080315 0.0015748 -0.000870079 0.0015 -0.000925197 0.00147638 -0.00100394 0.00141339 -0.00107874 0.00137402 -0.0011378 0.00130315 -0.00118504 0.00125591 -0.00125591 0.00118504 -0.00130709 0.00113386 -0.00137008 0.00108268 -0.00141732 0.001 -0.00147244 0.000925197 -0.0015 0.000870079 -0.00155512 0.00080315 -0.00161417 0.000720472 -0.00164567 0.000653543 -0.00166142 0.000566929 -0.00172835 0.000480315 -0.00174016 0.000405512 -0.0017874 0.000330709 -0.00181102 0.000216535 -0.00183071 0.000141732 -0.00183858 3.93701e-005 0 1.9685e-005zm-0.0361142 -0.0361181l0.00984252 0 0 0 1.9685e-005 0.00137402 0.000102362 0.00133858 0.000177165 0.00130709 0.000220472 0.00129134 0.000287402 0.00127559 0.000362205 0.00123228 0.000417323 0.00124016 0.000456693 0.00118898 0.000531496 0.00114961 0.000574803 0.00112992 0.000633858 0.00111417 0.00069685 0.00105906 0.000732283 0.00102756 0.000775591 0.00100787 0.000822835 0.000937008 0.000862205 0.000909449 0.000929134 0.000877953 0.000956693 0.000826772 0.000988189 0.000775591 0.00102756 0.000732283 0.00105906 0.00069685 0.00111024 0.000633858 0.00113386 0.000574803 0.00114961 0.000531496 0.00118898 0.000456693 0.00123622 0.000417323 0.00123228 0.000362205 0.00127953 0.000287402 0.0012874 0.000220472 0.00131102 0.000177165 0.00133465 0.000102362 0.00137402 1.9685e-005 0 0.00984252 -0.00183858 -5.90551e-005 -0.00183071 -0.000141732 -0.00181496 -0.000216535 -0.00178346 -0.000330709 -0.00174409 -0.000405512 -0.00172835 -0.000480315 -0.00166142 -0.000566929 -0.00164567 -0.000653543 -0.00161417 -0.000720472 -0.00155906 -0.00080315 -0.00149606 -0.000870079 -0.00147638 -0.000925197 -0.00141339 -0.001 -0.00137402 -0.00108268 -0.00130315 -0.00113386 -0.00123622 -0.00118504 -0.00120866 -0.00125591 -0.00112992 -0.00132283 -0.00108268 -0.00135433 -0.001 -0.00141339 -0.000925197 -0.00147638 -0.000870079 -0.0015 -0.00080315 -0.00155512 -0.000720472 -0.00161417 -0.000653543 -0.00164567 -0.000566929 -0.00166535 -0.000480315 -0.00172835 -0.000405512 -0.00174016 -0.000330709 -0.0017874 -0.000216535 -0.00181102 -0.000141732 -0.00183465 -5.90551e-005 -0.00183858 0 0zm0.0361142 -0.0360669l0 0.00980315 0 1.9685e-005 -0.00137402 1.9685e-005 -0.00133465 0.000102362 -0.00131102 0.000177165 -0.0012874 0.000220472 -0.00127953 0.000287402 -0.00125197 0.000362205 -0.00121654 0.000413386 -0.00118898 0.00046063 -0.00114961 0.000531496 -0.00113386 0.000594488 -0.00111024 0.000610236 -0.00105906 0.00069685 -0.00102756 0.00073622 -0.00100787 0.000771654 -0.000937008 0.000826772 -0.000929134 0.000877953 -0.000862205 0.000909449 -0.000822835 0.000956693 -0.000795276 0.000984252 -0.000712598 0.00102756 -0.00069685 0.00105906 -0.000633858 0.00111024 -0.000574803 0.00112992 -0.000531496 0.00114961 -0.000456693 0.00118898 -0.000417323 0.00123228 -0.000362205 0.00123228 -0.000287402 0.00127559 -0.000220472 0.0012874 -0.000177165 0.00130709 -0.000102362 0.00133465 -1.9685e-005 0.00137008 -0.00984252 0 5.90551e-005 -0.00183465 0.000141732 -0.00183071 0.000216535 -0.00181102 0.000330709 -0.00178346 0.000405512 -0.00174016 0.000480315 -0.00172835 0.000566929 -0.00165748 0.000653543 -0.00164567 0.000720472 -0.00161417 0.00080315 -0.00155512 0.000870079 -0.00149606 0.000925197 -0.00147638 0.00101969 -0.00141339 0.00106299 -0.00137008 0.00112992 -0.00130315 0.00120866 -0.00125591 0.00123622 -0.00118504 0.00132283 -0.00113386 0.00135433 -0.00107874 0.00141339 -0.00100394 0.00147638 -0.000925197 0.00149606 -0.000885827 0.00155906 -0.000783465 0.00161417 -0.000720472 0.00164567 -0.00065748 0.0016811 -0.000562992 0.00170866 -0.000480315 0.00174409 -0.000405512 0.00178346 -0.000330709 0.00181496 -0.000216535 0.00183071 -0.000141732 0.00183858 -5.90551e-005 0 1.9685e-005z"/>
    </g>
    <g>
     <path class="fil0" d="M0.142776 0.166929l-0.00984252 0 0 0 -1.9685e-005 -0.00137008 -0.000102362 -0.00133465 -0.000177165 -0.00130709 -0.000220472 -0.0012874 -0.000287402 -0.00127559 -0.000362205 -0.00123228 -0.000417323 -0.00123228 -0.000456693 -0.00118898 -0.000531496 -0.00114961 -0.000574803 -0.00112992 -0.000633858 -0.00111024 -0.00069685 -0.00105906 -0.000716535 -0.00102756 -0.000791339 -0.000984252 -0.000826772 -0.000956693 -0.000877953 -0.000909449 -0.000909449 -0.000877953 -0.000940945 -0.000826772 -0.00100394 -0.000771654 -0.0010315 -0.00073622 -0.00105512 -0.00069685 -0.00109449 -0.000610236 -0.00115354 -0.000594488 -0.00114961 -0.000531496 -0.00118898 -0.00046063 -0.00121654 -0.000413386 -0.00125197 -0.000362205 -0.00127953 -0.000287402 -0.0012874 -0.000220472 -0.00131102 -0.000177165 -0.00133465 -0.000102362 -0.00137402 -1.9685e-005 0 -0.00984252 0.00183858 5.90551e-005 0.00183071 0.000141732 0.00181496 0.000216535 0.00178346 0.000330709 0.00174409 0.000405512 0.00170866 0.000480315 0.0016811 0.000562992 0.00164567 0.00065748 0.00161417 0.000720472 0.00153937 0.000783465 0.00151969 0.000885827 0.00147244 0.000925197 0.00141732 0.00100394 0.00135039 0.00107874 0.00132677 0.00113386 0.00125591 0.00118504 0.00118504 0.00125591 0.00113386 0.00130315 0.00105906 0.00137008 0.00102362 0.00141339 0.000925197 0.00147638 0.000870079 0.00149606 0.00080315 0.00155512 0.000720472 0.00161417 0.000653543 0.00164567 0.000566929 0.00165748 0.000480315 0.00172835 0.000405512 0.00174016 0.000330709 0.00178346 0.000216535 0.00181102 0.000141732 0.00183071 5.90551e-005 0.00183465 0 0zm-0.0361181 0.0361181l0 -0.00984252 0 0 0.00137402 -1.9685e-005 0.00133465 -0.000102362 0.00131102 -0.000177165 0.0012874 -0.000220472 0.00127953 -0.000287402 0.00123228 -0.000362205 0.00123622 -0.000417323 0.00118898 -0.000456693 0.00114961 -0.000531496 0.00113386 -0.000574803 0.00111417 -0.000633858 0.00105512 -0.00069685 0.0010315 -0.000732283 0.000984252 -0.000775591 0.00096063 -0.000826772 0.000909449 -0.000877953 0.000877953 -0.000909449 0.000826772 -0.000937008 0.000771654 -0.00100787 0.00073622 -0.00102756 0.00069685 -0.00105906 0.000633858 -0.00111417 0.000574803 -0.00112992 0.000531496 -0.00114961 0.000456693 -0.00118898 0.000417323 -0.00124016 0.000362205 -0.00123228 0.000287402 -0.00127559 0.000220472 -0.00129134 0.000177165 -0.00130709 0.000102362 -0.00133858 1.9685e-005 -0.00137402 0.00984252 0 -5.90551e-005 0.00183858 -0.000141732 0.00183465 -0.000216535 0.00181102 -0.000330709 0.0017874 -0.000405512 0.00174016 -0.000480315 0.00172835 -0.000566929 0.00166535 -0.000653543 0.00164567 -0.000720472 0.00161417 -0.00080315 0.00155512 -0.000870079 0.0015 -0.000925197 0.00147638 -0.00100394 0.00141339 -0.00107874 0.00135433 -0.00113386 0.00132283 -0.00118504 0.00125591 -0.00125591 0.00118504 -0.00130709 0.00113386 -0.00137008 0.00108268 -0.00141732 0.001 -0.00147244 0.000925197 -0.0015 0.000870079 -0.00155906 0.00080315 -0.00161417 0.000720472 -0.00164567 0.000653543 -0.00166142 0.000566929 -0.00172835 0.000480315 -0.00174409 0.000405512 -0.00178346 0.000330709 -0.00181496 0.000216535 -0.00183071 0.000141732 -0.00183858 5.90551e-005 0 0zm-0.0361063 -0.0361181l0.00984252 0 0 0 1.9685e-005 0.00137402 0.000102362 0.00133858 0.000177165 0.00130709 0.000220472 0.00129134 0.000287402 0.00127559 0.000362205 0.00125197 0.000413386 0.00122047 0.00046063 0.00118898 0.000531496 0.00116929 0.000590551 0.00111024 0.000614173 0.00111417 0.00069685 0.00105906 0.00073622 0.00102756 0.000771654 0.00100787 0.000826772 0.000937008 0.000877953 0.000909449 0.000909449 0.000877953 0.000956693 0.000826772 0.000984252 0.000775591 0.0010315 0.000732283 0.00105512 0.00069685 0.00111417 0.000633858 0.00112992 0.000574803 0.00114961 0.000531496 0.00118898 0.000456693 0.00123622 0.000417323 0.00123228 0.000362205 0.00127953 0.000287402 0.0012874 0.000220472 0.00131102 0.000177165 0.00133465 0.000102362 0.00137402 1.9685e-005 0 0.00984252 -0.00183858 -5.90551e-005 -0.00183071 -0.000141732 -0.00181496 -0.000216535 -0.00178346 -0.000330709 -0.00174409 -0.000405512 -0.00172835 -0.000480315 -0.00166142 -0.000566929 -0.00164567 -0.000653543 -0.00161417 -0.000720472 -0.00155512 -0.00080315 -0.0015 -0.000870079 -0.00147244 -0.000925197 -0.00141732 -0.001 -0.00137008 -0.00108268 -0.00130315 -0.00113386 -0.00125591 -0.00118504 -0.00118504 -0.00125591 -0.00113386 -0.00132283 -0.00107874 -0.00135433 -0.00100394 -0.00141339 -0.000925197 -0.00147638 -0.000889764 -0.0015 -0.000779528 -0.0015748 -0.000720472 -0.00159449 -0.00065748 -0.00164567 -0.000562992 -0.00168504 -0.000480315 -0.00170866 -0.000405512 -0.00174016 -0.000330709 -0.0017874 -0.000216535 -0.00181102 -0.000141732 -0.00183465 -5.90551e-005 -0.00183858 0 0zm0.0361063 -0.0360866l0 0.00984252 0 0 -0.00137402 1.9685e-005 -0.00133465 0.000102362 -0.00131102 0.000177165 -0.0012874 0.000220472 -0.00127953 0.000287402 -0.00125197 0.000362205 -0.00121654 0.000413386 -0.00118898 0.00046063 -0.00114961 0.000531496 -0.00112992 0.000594488 -0.00111417 0.000610236 -0.00105512 0.00069685 -0.0010315 0.00073622 -0.000984252 0.000771654 -0.000956693 0.000826772 -0.000909449 0.000877953 -0.000877953 0.000909449 -0.000826772 0.000956693 -0.000791339 0.000984252 -0.000716535 0.00102756 -0.00069685 0.00105906 -0.000633858 0.00111024 -0.000570866 0.00111024 -0.000531496 0.00116929 -0.00046063 0.00118898 -0.000413386 0.0012126 -0.000362205 0.00125197 -0.000287402 0.00127559 -0.000220472 0.0012874 -0.000177165 0.00130709 -0.000102362 0.00133465 -1.9685e-005 0.00137008 -0.00984252 0 5.90551e-005 -0.00183465 0.000141732 -0.00183071 0.000216535 -0.00181102 0.000330709 -0.00178346 0.000405512 -0.00174016 0.000480315 -0.00170866 0.000562992 -0.00167717 0.00065748 -0.00164567 0.000720472 -0.00159449 0.000799213 -0.0015748 0.000870079 -0.00149606 0.000925197 -0.00147638 0.00102362 -0.00141339 0.00105906 -0.00137008 0.00113386 -0.00130315 0.00118504 -0.00125591 0.00125591 -0.00118504 0.00130315 -0.00113386 0.00137008 -0.00107874 0.00141732 -0.00100394 0.00147244 -0.000925197 0.0015 -0.000885827 0.00155512 -0.000783465 0.00161417 -0.000720472 0.00164567 -0.00065748 0.0016811 -0.000562992 0.00170866 -0.000480315 0.00174409 -0.000405512 0.00178346 -0.000330709 0.00181496 -0.000216535 0.00183071 -0.000141732 0.00183858 -5.90551e-005 0 0z"/>
    </g>
    <g>
     <path class="fil0" d="M0.211583 0.166929l-0.00984252 0 0 0 -1.9685e-005 -0.00137008 -0.000102362 -0.00133465 -0.000177165 -0.00130709 -0.000220472 -0.0012874 -0.000291339 -0.00127559 -0.000358268 -0.00125197 -0.000417323 -0.00119291 -0.00046063 -0.00120866 -0.000531496 -0.00114961 -0.000574803 -0.00112992 -0.000633858 -0.00111024 -0.00069685 -0.00105906 -0.000716535 -0.00102756 -0.000791339 -0.000984252 -0.000826772 -0.000956693 -0.000858268 -0.000909449 -0.000933071 -0.000877953 -0.000937008 -0.000826772 -0.00100787 -0.000771654 -0.00102756 -0.00073622 -0.00105906 -0.00069685 -0.00111024 -0.000610236 -0.00113386 -0.000594488 -0.00114961 -0.000531496 -0.00118504 -0.00046063 -0.00121654 -0.000413386 -0.00125197 -0.000362205 -0.00127559 -0.000287402 -0.0012874 -0.000220472 -0.00131102 -0.000177165 -0.00133465 -0.000102362 -0.00137008 -1.9685e-005 0 -0.00984252 0.00183465 5.90551e-005 0.00183071 0.000141732 0.00181496 0.000216535 0.00178346 0.000330709 0.00174016 0.000405512 0.00170866 0.000480315 0.0016811 0.000562992 0.00164173 0.00065748 0.00161417 0.000720472 0.00155906 0.000783465 0.00149606 0.000885827 0.00147638 0.000925197 0.00141339 0.00100394 0.00135433 0.00107874 0.00132283 0.00113386 0.00124016 0.00118504 0.00120472 0.00125591 0.00113386 0.00130315 0.00105906 0.00137008 0.00102362 0.00141339 0.000925197 0.00147638 0.000870079 0.00149606 0.00080315 0.00155512 0.000720472 0.00161417 0.00065748 0.00162598 0.000566929 0.00169685 0.000476378 0.00170866 0.000409449 0.00174016 0.000330709 0.00178346 0.000216535 0.00181102 0.000141732 0.00183071 5.90551e-005 0.00183465 0 0zm-0.0361102 0.0360984l0 -0.00980315 0 -1.9685e-005 0.00137008 -1.9685e-005 0.00133465 -0.000102362 0.00131102 -0.000177165 0.0012874 -0.000220472 0.00127559 -0.000287402 0.00123228 -0.000362205 0.00123622 -0.000417323 0.00118504 -0.000456693 0.00114961 -0.000531496 0.00113386 -0.000574803 0.00111024 -0.000633858 0.00105906 -0.00069685 0.00102756 -0.000732283 0.000988189 -0.000775591 0.000956693 -0.000826772 0.000933071 -0.000877953 0.000858268 -0.000909449 0.000826772 -0.000937008 0.000771654 -0.00100787 0.00073622 -0.00102756 0.00069685 -0.00105906 0.000633858 -0.00111417 0.000574803 -0.00112992 0.000531496 -0.00114961 0.00046063 -0.00120866 0.000417323 -0.00120079 0.000358268 -0.00125197 0.000291339 -0.00127559 0.000220472 -0.00129134 0.000177165 -0.00130709 0.000102362 -0.00133858 1.9685e-005 -0.00137402 0.00984252 0 -5.90551e-005 0.00183858 -0.000141732 0.00183465 -0.000216535 0.00181102 -0.000330709 0.0017874 -0.000409449 0.00174016 -0.000476378 0.00170866 -0.000566929 0.00170472 -0.00065748 0.00162598 -0.000720472 0.00161417 -0.00080315 0.00155512 -0.000870079 0.0015 -0.000925197 0.00147638 -0.00100394 0.00141339 -0.00107874 0.00135433 -0.00113386 0.00132283 -0.00120472 0.00125591 -0.00124016 0.00118504 -0.00130315 0.00113386 -0.00137402 0.00108268 -0.00141339 0.001 -0.00147638 0.000925197 -0.00149606 0.000870079 -0.00155906 0.00080315 -0.00161417 0.000720472 -0.00164173 0.000653543 -0.00166142 0.000566929 -0.00172835 0.000480315 -0.00174016 0.000405512 -0.00178346 0.000330709 -0.00181496 0.000216535 -0.00183071 0.000141732 -0.00183465 5.90551e-005 0 -1.9685e-005zm-0.0361142 -0.0360984l0.00984252 0 0 0 1.9685e-005 0.00137402 0.000102362 0.00133858 0.000177165 0.00130709 0.000220472 0.00129134 0.000287402 0.00127559 0.000362205 0.00123228 0.000417323 0.00122047 0.00046063 0.00120866 0.000527559 0.00116929 0.000574803 0.00111024 0.000633858 0.00111417 0.00069685 0.00105906 0.00073622 0.00102756 0.000771654 0.000988189 0.000830709 0.000956693 0.000877953 0.000909449 0.000909449 0.000877953 0.00096063 0.000826772 0.000984252 0.000775591 0.0010315 0.000732283 0.00105512 0.00069685 0.00111417 0.000633858 0.00112992 0.000574803 0.00114961 0.000531496 0.00118898 0.000456693 0.00123622 0.000417323 0.00123228 0.000362205 0.00127559 0.000287402 0.00129134 0.000220472 0.00130709 0.000177165 0.00133465 0.000102362 0.00137402 3.93701e-005 0 0.00980315 -0.00183858 -3.93701e-005 -0.00183071 -0.000141732 -0.00181102 -0.000216535 -0.0017874 -0.000330709 -0.00174016 -0.000405512 -0.00172835 -0.000480315 -0.00166142 -0.000566929 -0.00164567 -0.000653543 -0.00161417 -0.000720472 -0.00155512 -0.00080315 -0.0015 -0.000870079 -0.00147244 -0.000925197 -0.00141732 -0.001 -0.00137008 -0.00108268 -0.00130709 -0.00113386 -0.00125591 -0.00118504 -0.00118504 -0.00125591 -0.0011378 -0.00130315 -0.00107874 -0.00137402 -0.00100394 -0.00141339 -0.000925197 -0.00147638 -0.000870079 -0.0015 -0.00080315 -0.0015748 -0.000716535 -0.00159449 -0.00065748 -0.00162598 -0.000566929 -0.00168504 -0.000480315 -0.00172835 -0.000405512 -0.00174016 -0.000330709 -0.0017874 -0.000216535 -0.00181102 -0.000141732 -0.00183465 -5.90551e-005 -0.00183858 0 0zm0.0361142 -0.0360866l0 0.00984252 0 -1.9685e-005 -0.00137402 3.93701e-005 -0.00133465 0.000102362 -0.00130709 0.000177165 -0.00129134 0.000220472 -0.00127559 0.000287402 -0.00125197 0.000362205 -0.00121654 0.000413386 -0.00118898 0.00046063 -0.00114961 0.000531496 -0.00112992 0.000594488 -0.00111417 0.000610236 -0.00105512 0.00069685 -0.0010315 0.00073622 -0.00100394 0.000771654 -0.000940945 0.000826772 -0.000909449 0.000877953 -0.000877953 0.000909449 -0.000830709 0.000956693 -0.000791339 0.000984252 -0.000716535 0.00102756 -0.00069685 0.00105906 -0.000633858 0.00111024 -0.000574803 0.00111024 -0.000527559 0.00116929 -0.00046063 0.00120866 -0.000417323 0.0012126 -0.000362205 0.00123228 -0.000287402 0.00127559 -0.000220472 0.0012874 -0.000177165 0.00130709 -0.000102362 0.00133465 -1.9685e-005 0.00137008 -0.00984252 0 5.90551e-005 -0.00183465 0.000141732 -0.00183071 0.000216535 -0.00181102 0.000330709 -0.00178346 0.000405512 -0.00174016 0.000480315 -0.00172835 0.000566929 -0.00167717 0.00065748 -0.00162598 0.000716535 -0.00159449 0.00080315 -0.0015748 0.000870079 -0.00149606 0.000925197 -0.00147638 0.00102362 -0.00141339 0.00105906 -0.00137008 0.0011378 -0.00130315 0.00118504 -0.00125591 0.00125591 -0.00118504 0.00132677 -0.00113386 0.00135039 -0.00107874 0.00141732 -0.00100394 0.00147244 -0.000925197 0.0015 -0.000885827 0.00155512 -0.000783465 0.00161417 -0.000720472 0.00164567 -0.00065748 0.0016811 -0.000562992 0.00170866 -0.000480315 0.00174016 -0.000405512 0.0017874 -0.000330709 0.00181102 -0.000216535 0.00183071 -0.000141732 0.00183858 -3.93701e-005 0 -1.9685e-005z"/>
    </g>
   </g>
  </g>
 </g>
</svg>
