<?xml version="1.0" encoding="UTF-8"?>
<!DOCTYPE svg PUBLIC "-//W3C//DTD SVG 1.1//EN" "http://www.w3.org/Graphics/SVG/1.1/DTD/svg11.dtd">
<!-- Creator: CorelDRAW -->
<svg xmlns="http://www.w3.org/2000/svg" xml:space="preserve" width="0.213331in" height="0.213331in" style="shape-rendering:geometricPrecision; text-rendering:geometricPrecision; image-rendering:optimizeQuality; fill-rule:evenodd; clip-rule:evenodd"
viewBox="0 0 0.213331 0.213331"
 xmlns:xlink="http://www.w3.org/1999/xlink">
 <defs>
  <style type="text/css">
   <![CDATA[
    .fil0 {fill:#666666}
   ]]>
  </style>
 </defs>
 <g id="Layer_x0020_1">
  <metadata id="CorelCorpID_0Corel-Layer"/>
  <path class="fil0" d="M0.0727362 0.12002l0.0189843 0.0175906 -0.0155157 0.0166102 -0.0200197 -0.0176535 0.0165512 -0.0165472zm0.0724213 -0.0718465c0.00334252,0.00972835 0.00614567,0.00943307 0.00614567,0.0180236l0 0.00709055c0,0.00662598 -0.00985039,0.0136457 -0.0141811,0.0165472l-0.0172402 -0.0172598 0.0252756 -0.0244016zm-0.0860551 0.0203858c0,-0.00737795 0.00432283,-0.0136811 0.00709055,-0.0189134l0.0880591 0.0868898 -0.0190157 0.017626c-0.0120157,-0.00821654 -0.0761339,-0.0726181 -0.0761339,-0.0856024zm0.0189134 -0.0378268c0.00383071,-0.00572047 0.0069252,-0.00945669 0.0165472,-0.00945669l0.0212795 0c0.00962205,0 0.0127165,0.00373622 0.0165472,0.00945669l-0.0265276 0.0278543 -0.0278465 -0.0278543zm-0.0378268 0.0307362l0 0.00945669c0,0.0192953 0.0113386,0.0241496 0.0189134,0.0354606 -0.00539764,0.00805906 -0.0591024,0.0539291 -0.0591024,0.0591024 0,0.00632283 0.00340945,0.00699213 0.00761417,0.00998425l0.0305748 -0.0292992 0.00909055 0.00749606c-0.00364961,0.00545276 -0.0283701,0.0285787 -0.0283701,0.0307323 0,0.00632283 0.00341339,0.00699213 0.00761811,0.00998425l0.0305748 -0.0292992 0.00909055 0.00749606c-0.00364961,0.00545276 -0.0283701,0.0285787 -0.0283701,0.0307323 0,0.00632283 0.00341339,0.00699213 0.00764961,0.0100157l0.0609134 -0.0596614c0.00805906,0.0053937 0.0539291,0.0591024 0.0591024,0.0591024 0.00632283,0 0.00699606,-0.00341339 0.00998819,-0.00761811l-0.0308976 -0.0321693 0.00961417 -0.00802362 0.0302283 0.0289291 0.00943701 -0.00475984c-0.00292913,-0.0109803 -0.0283701,-0.0286535 -0.0283701,-0.0330984 0,-0.00632283 0.00341339,-0.00699213 0.00761811,-0.00998425l0.0304764 0.0292992 0.00974803 -0.00805118 -0.0620276 -0.0632756c0.00708661,-0.00474016 0.0212795,-0.0203071 0.0212795,-0.0307323 0,-0.0228031 -0.010815,-0.0335276 -0.0196693,-0.0488898 -0.00941732,-0.0163307 -0.0219961,-0.0243976 -0.0465276,-0.0243976l-0.00236614 0c-0.019937,0 -0.0339764,0.0066378 -0.0421299,0.0193346 -0.00490551,0.0076378 -0.0217008,0.0332717 -0.0217008,0.0421339z"/>
 </g>
</svg>
