<?xml version="1.0" encoding="UTF-8"?>
<!DOCTYPE svg PUBLIC "-//W3C//DTD SVG 1.1//EN" "http://www.w3.org/Graphics/SVG/1.1/DTD/svg11.dtd">
<!-- Creator: CorelDRAW -->
<svg xmlns="http://www.w3.org/2000/svg" xml:space="preserve" width="0.213331in" height="0.213331in" style="shape-rendering:geometricPrecision; text-rendering:geometricPrecision; image-rendering:optimizeQuality; fill-rule:evenodd; clip-rule:evenodd"
viewBox="0 0 0.213331 0.213331"
 xmlns:xlink="http://www.w3.org/1999/xlink">
 <defs>
  <style type="text/css">
   <![CDATA[
    .str0 {stroke:#666666;stroke-width:0.00980709}
    .fil0 {fill:none}
   ]]>
  </style>
 </defs>
 <g id="Layer_x0020_1">
  <metadata id="CorelCorpID_0Corel-Layer"/>
  <g>
   <path class="fil0 str0" d="M0.0690787 0.0220945l0.0657835 0c0.0350669,0 0.0328661,0.0164291 0.0328661,0.0493504l0.000330709 0.0421024 0 0 0.00105906 0m-0.123366 0l-7.87402e-006 -0.000799213 -0.000141732 -0.0413031 0 -0.000826772c-1.1811e-005,-0.0250551 -0.000795276,-0.0484882 0.0234764,-0.0485236m0.0989803 0.0914528l0.00105906 0 -0.00105906 0 0.000177165 0.0231417 -0.122378 0 -0.000106299 -0.0231417 0.122307 0zm0 0l0.000177165 0.0231417 -0.122378 0 -0.000106299 -0.0231417 0.122307 0zm0 0l0.00105906 0 -0.00105906 0 0 0 -0.000330709 -0.0421024c0.00941339,-0.0025315 0.00769291,-0.00706693 0.0187992,-0.00707087 0.0117953,0 0.021122,0.0102283 0.021122,0.0211535 3.93701e-006,0.00875197 -0.00419685,0.0143937 -0.0117323,0.0164173 0,0.0323898 0.00787008,0.0552323 -0.0140945,0.0657756l0 0.0211181c-1.9685e-005,0.00282677 -0.00403543,0.00236614 -0.00937402,0.00236614 -0.0028937,0 -0.00708268,-0.00484646 -0.00708268,-0.00938976l0 -0.0140945 -0.117402 0 0 0.0140945c0,0.00546457 -0.00390157,0.00938976 -0.00938583,0.00938976 -0.010437,0 -0.00707087,-0.0125984 -0.00707087,-0.0234843 -0.00284646,-0.00135827 -0.00517717,-0.00295669 -0.0071063,-0.00468898l-0.00279528 -0.00312205c-0.00920866,-0.0122992 -0.00419291,-0.0320748 -0.00419291,-0.0579646 -0.00558661,-0.0015 -0.0117323,-0.00781496 -0.0117362,-0.0140906l0 -0.00232677c1.1811e-005,-0.0116378 0.00951969,-0.0211496 0.021126,-0.0211535 0.0111063,3.93701e-006 0.00938583,0.00453937 0.0187992,0.00707087l0.000141732 0.0413031 7.87402e-006 0.000799213 -0.00105118 0 0.00105118 0 0.122307 0z"/>
  </g>
 </g>
</svg>
